Coordinates
version=1
nRows=8
nColumns=40
inDegrees=yes

Units are S.I. units (second, meters, Newtons, ...)
If the header above contains a line with 'inDegrees', this indicates whether rotational values are in degrees (yes) or radians (no).

endheader
time	pelvis_tilt	pelvis_list	pelvis_rotation	pelvis_tx	pelvis_ty	pelvis_tz	hip_flexion_r	hip_adduction_r	hip_rotation_r	knee_angle_r	knee_angle_r_beta	ankle_angle_r	subtalar_angle_r	mtp_angle_r	hip_flexion_l	hip_adduction_l	hip_rotation_l	knee_angle_l	knee_angle_l_beta	ankle_angle_l	subtalar_angle_l	mtp_angle_l	lumbar_extension	lumbar_bending	lumbar_rotation	arm_flex_r	arm_add_r	arm_rot_r	elbow_flex_r	pro_sup_r	wrist_flex_r	wrist_dev_r	arm_flex_l	arm_add_l	arm_rot_l	elbow_flex_l	pro_sup_l	wrist_flex_l	wrist_dev_l
      3.16000000	    -30.50640334	      0.32883209	     -1.54598130	     -0.39391822	      0.60675617	     -0.91509537	     92.21237979	    -14.11805408	     -2.66027925	     99.98356793	      1.74504246	     38.34118959	      0.00000000	      0.00000000	     91.44029219	    -19.24651172	     -1.76566243	     99.03465699	      1.72848084	     38.03281942	      0.00000000	      0.00000000	     -7.95419023	    -16.48038658	     -4.87205106	      8.06106584	    -40.14591559	     74.99864121	     84.70342249	      3.41540386	      0.00000000	      0.00000000	     19.64473724	    -60.16707728	     88.69538429	    106.54905581	     88.03781176	      0.00000000	      0.00000000
      3.16500000	    -30.73229047	      0.42868362	     -1.28428766	     -0.39460797	      0.60654245	     -0.91619944	     92.54037571	    -14.48500231	     -2.52800910	     99.96120469	      1.74465215	     38.24599924	      0.00000000	      0.00000000	     91.67876286	    -18.74567438	     -1.78157171	     98.93122093	      1.72667554	     37.95401580	      0.00000000	      0.00000000	     -7.82580831	    -16.45847455	     -5.17021376	      8.16463489	    -40.23027309	     75.09258145	     84.67453766	      3.26751381	      0.00000000	      0.00000000	     19.60679407	    -60.06026535	     88.70401128	    106.49245292	     87.99468002	      0.00000000	      0.00000000
      3.17000000	    -30.74670027	      0.41101909	     -1.30836834	     -0.39462415	      0.60657608	     -0.91616209	     92.54267154	    -14.46067059	     -2.55827391	     99.94431287	      1.74435733	     38.24586952	      0.00000000	      0.00000000	     91.69539778	    -18.77632327	     -1.76971085	     98.92874988	      1.72663241	     37.97094858	      0.00000000	      0.00000000	     -7.79445813	    -16.42989164	     -5.11656873	      8.13026700	    -40.26066704	     75.09052550	     84.73707445	      3.48663689	      0.00000000	      0.00000000	     19.70064089	    -60.02973582	     88.68162617	    106.50032532	     88.11151094	      0.00000000	      0.00000000
      3.17500000	    -30.56238480	      0.29468682	     -1.54392929	     -0.39411034	      0.60685145	     -0.91519463	     92.24183254	    -14.13228669	     -2.71911076	     99.92913631	      1.74409245	     38.31044170	      0.00000000	      0.00000000	     91.53383308	    -19.16474398	     -1.65669711	     99.01493701	      1.72813666	     37.95144003	      0.00000000	      0.00000000	     -7.93732143	    -16.39010427	     -4.94017090	      8.22264345	    -40.18570465	     75.23805227	     84.74092522	      3.36360339	      0.00000000	      0.00000000	     19.57895685	    -60.15117195	     88.71918133	    106.49866729	     87.99303903	      0.00000000	      0.00000000
      3.18000000	    -30.83246458	      0.45199380	     -1.37919981	     -0.39474043	      0.60665617	     -0.91604168	     92.64474970	    -14.38459056	     -2.52293620	     99.90005947	      1.74358496	     38.14507892	      0.00000000	      0.00000000	     91.74683929	    -18.82220187	     -1.79190656	     98.89002714	      1.72595657	     37.95319001	      0.00000000	      0.00000000	     -7.67370589	    -16.47620440	     -5.01386010	      8.03997131	    -40.23438491	     74.97984739	     84.52748626	      5.22297697	      0.00000000	      0.00000000	     19.82579948	    -60.01205619	     88.80456184	    106.48535406	     88.18013660	      0.00000000	      0.00000000
      3.18500000	    -30.83272046	      0.31825916	     -1.35043661	     -0.39482678	      0.60667900	     -0.91603349	     92.57919007	    -14.39883545	     -2.67817273	     99.88245305	      1.74327767	     38.14942346	      0.00000000	      0.00000000	     91.83425606	    -18.78792730	     -1.61856005	     98.89628860	      1.72606585	     37.86494344	      0.00000000	      0.00000000	     -7.67764305	    -16.29556302	     -5.04909314	      8.19003072	    -40.32825050	     75.22076560	     84.87768406	      3.61854056	      0.00000000	      0.00000000	     19.78547957	    -59.98193755	     88.76905000	    106.46568522	     88.04799658	      0.00000000	      0.00000000
      3.19000000	    -30.88200585	      0.35754657	     -1.38609777	     -0.39483634	      0.60677753	     -0.91595562	     92.62536696	    -14.36111835	     -2.65490459	     99.82963787	      1.74235587	     38.19012228	      0.00000000	      0.00000000	     91.84497411	    -18.81524068	     -1.66134076	     98.86324869	      1.72548920	     37.93979125	      0.00000000	      0.00000000	     -7.62282836	    -16.33951142	     -5.02722831	      8.15214073	    -40.25774504	     75.15535316	     84.68585690	      3.46607996	      0.00000000	      0.00000000	     19.73656201	    -59.98233674	     88.74269752	    106.43340557	     88.06537476	      0.00000000	      0.00000000
      3.19500000	    -30.80219369	      0.33687302	     -1.39603078	     -0.39478775	      0.60702314	     -0.91591955	     92.48431076	    -14.34874199	     -2.69226937	     99.77469108	      1.74139687	     38.39531179	      0.00000000	      0.00000000	     91.73463054	    -18.80840013	     -1.62208456	     98.84215919	      1.72512112	     38.08481306	      0.00000000	      0.00000000	     -7.77166687	    -16.31146097	     -5.14827718	      8.43500334	    -40.26997048	     75.53370376	     84.75286219	      3.58979903	      0.00000000	      0.00000000	     19.56122185	    -60.02813187	     88.60386012	    106.45940977	     88.19496212	      0.00000000	      0.00000000
